<svg width="200" height="160" viewBox="0 0 200 160" fill="none" xmlns="http://www.w3.org/2000/svg">
<g id="undraw_basketball_agx4 1" clip-path="url(#clip0_3_2)">
<path id="Vector" d="M153.257 129.065C153.257 129.065 149.187 133.23 151.484 139.41C153.782 145.59 147.546 155.87 147.546 155.87L147.745 155.837C156.105 154.328 160.264 144.543 155.61 137.275C153.865 134.574 152.448 131.404 153.257 129.065Z" fill="#F54B40"/>
<path id="Vector_2" d="M153.257 129.065C153.257 129.065 150.96 134.172 153.257 138.336C155.554 142.501 153.654 154.198 147.546 155.87" stroke="#535461" stroke-miterlimit="10"/>
<path id="Vector_3" d="M160.498 145.913C160.498 145.913 155.854 145.157 155.431 149.415C155.008 153.674 146.501 154.265 146.501 154.265L146.66 154.373C153.684 159.093 160.399 157.379 159.378 151.119C159.02 148.785 159.042 146.444 160.498 145.913Z" fill="#FE7325"/>
<path id="Vector_4" opacity="0.2" d="M160.498 145.913C160.498 145.913 155.854 145.157 155.431 149.415C155.008 153.674 146.501 154.265 146.501 154.265L146.66 154.373C153.684 159.093 160.399 157.379 159.378 151.119C159.02 148.785 159.042 146.444 160.498 145.913Z" fill="#E06B6B"/>
<path id="Vector_5" d="M160.498 145.913C160.498 145.913 156.894 146.727 157.19 150.078C157.486 153.429 151.836 157.454 146.501 154.267" stroke="#535461" stroke-miterlimit="10"/>
<path id="Vector_6" d="M139.551 72.554H148.462V155.858H139.551V72.554Z" fill="url(#paint0_linear_3_2)"/>
<path id="Vector_7" d="M129.832 159.587H157.778L147.854 153.163H140.362L129.832 159.587Z" fill="url(#paint1_linear_3_2)"/>
<path id="Vector_8" d="M187.747 29.8672C187.747 29.8672 150.077 -8.25633 101.28 29.8672V62.8112C101.28 62.8112 139.551 86.4353 187.745 62.8112L187.747 29.8672Z" fill="url(#paint2_linear_3_2)"/>
<path id="Vector_9" d="M185.013 30.705C185.013 30.705 149.73 -5.01277 104.014 30.705V61.5707C104.014 61.5707 139.865 83.7001 185.013 61.5707V30.705Z" fill="url(#paint3_linear_3_2)"/>
<path id="Vector_10" d="M133.884 48.932H155.348V67.5819H133.884V48.932Z" fill="url(#paint4_linear_3_2)"/>
<path id="Vector_11" d="M135.706 50.5141H153.525V65.9978H135.706V50.5141Z" fill="url(#paint5_linear_3_2)"/>
<path id="Vector_12" d="M144.209 67.3745C153.716 67.3745 161.42 68.674 161.42 70.2764C161.42 71.8789 153.714 73.1783 144.209 73.1783C134.705 73.1783 126.998 71.8789 126.998 70.2764C126.998 68.674 134.705 67.3745 144.209 67.3745ZM144.209 71.9338C152.933 71.9338 160.004 71.098 160.004 70.069C160.004 69.04 152.933 68.2062 144.209 68.2062C135.485 68.2062 128.417 69.038 128.417 70.069C128.417 71.1 135.487 71.9338 144.209 71.9338Z" fill="url(#paint6_linear_3_2)"/>
<path id="Vector_13" d="M144.209 67.3745C153.716 67.3745 161.42 68.674 161.42 70.2764C161.42 71.8789 153.714 73.1783 144.209 73.1783C134.705 73.1783 126.998 71.8789 126.998 70.2764C126.998 68.674 134.705 67.3745 144.209 67.3745ZM144.209 71.9338C152.933 71.9338 160.004 71.098 160.004 70.069C160.004 69.04 152.933 68.2062 144.209 68.2062C135.485 68.2062 128.417 69.038 128.417 70.069C128.417 71.1 135.487 71.9338 144.209 71.9338Z" fill="url(#paint7_linear_3_2)"/>
<path id="Vector_14" d="M144.209 66.7543C153.716 66.7543 161.42 68.0537 161.42 69.6562C161.42 71.2587 153.714 72.5581 144.209 72.5581C134.705 72.5581 126.998 71.2587 126.998 69.6562C126.998 68.0537 134.705 66.7543 144.209 66.7543ZM144.209 71.3136C152.933 71.3136 160.004 70.4778 160.004 69.4488C160.004 68.4198 152.931 67.584 144.209 67.584C135.487 67.584 128.417 68.4096 128.417 69.4467C128.417 70.4839 135.487 71.3115 144.209 71.3115V71.3136Z" fill="url(#paint8_linear_3_2)"/>
<path id="Vector_15" d="M139.645 72.8103H148.388V154.56H139.645V72.8103Z" fill="#5890FF"/>
<path id="Vector_16" d="M130.106 158.221H157.53L147.792 151.917H140.44L130.106 158.221Z" fill="#5890FF"/>
<path id="Vector_17" d="M186.94 30.9186C186.94 30.9186 149.978 -6.49931 102.087 30.9186V63.2525C102.087 63.2525 139.645 86.4353 186.94 63.2525V30.9186Z" fill="#E8EAF1"/>
<path id="Vector_18" d="M184.257 31.7421C184.257 31.7421 149.632 -3.31067 104.769 31.7421V62.0303C104.769 62.0303 139.943 83.7469 184.257 62.0303V31.7421Z" fill="#5890FF"/>
<path id="Vector_19" d="M134.081 49.6275H155.145V67.9297H134.081V49.6275Z" fill="white"/>
<path id="Vector_20" d="M135.869 51.1811H153.356V66.376H135.869V51.1811Z" fill="#5890FF"/>
<path id="Vector_21" d="M154.743 96.0317L159.767 83.1612L159.578 83.0839L154.734 95.4888L149.879 84.1516L156.351 71.9826L156.174 71.883L149.777 83.9116L144.927 72.5886H144.867L130.464 71.1956L143.806 95.564L149.754 84.3793L154.743 96.0317ZM149.65 84.1414L143.804 95.1349L130.825 71.4335L144.784 72.7838L149.65 84.1414Z" fill="white"/>
<path id="Vector_22" d="M133.262 95.3932L133.365 95.1898L145.312 71.5657L145.131 71.4702L133.288 94.8889L128.836 83.086L128.648 83.1612L133.262 95.3932Z" fill="white"/>
<path id="Vector_23" d="M137.103 96.0053L143.873 84.0682L149.879 95.5864L155.089 83.515L160.51 95.806L160.699 95.7287C158.513 89.1969 160.681 70.6811 160.699 70.494L160.783 69.8006L155.083 83.0046L150.332 72.2266L143.867 83.6289L137.956 72.2734L132.948 83.9685L128.087 70.5937L126.871 70.3456L126.899 70.4961C126.935 70.6872 130.255 88.5949 128.367 94.6672L127.918 95.7165L128.097 95.8121C128.291 95.4732 128.446 95.1121 128.558 94.7363L132.93 84.5217L137.103 96.0053ZM143.762 83.8465L137.145 95.5213L133.049 84.2532L137.973 72.7533L143.762 83.8465ZM154.986 83.2547L149.879 95.1125L144.001 83.8506L150.322 72.6801L154.986 83.2547ZM160.435 71.1427C160.089 74.3314 158.744 87.934 160.167 94.4984L155.199 83.2547L160.435 71.1427ZM132.829 84.2492L128.84 93.5629C130.052 86.9335 127.449 72.3913 127.123 70.614L127.932 70.7787L132.829 84.2492Z" fill="white"/>
<path id="Vector_24" opacity="0.1" d="M137.24 95.8243L143.885 84.1028L149.789 95.4115L154.902 83.5659L160.212 95.6291L160.397 95.5538C158.243 89.142 160.379 70.9719 160.397 70.7889L160.479 70.1077L154.885 83.0656L150.221 72.491L143.877 83.6757L138.061 72.5317L133.147 84.0092L128.377 70.8825L127.185 70.6384L127.213 70.7869C127.249 70.976 130.508 88.5482 128.653 94.5086L128.212 95.5376L128.389 95.6311C128.58 95.2986 128.732 94.9444 128.842 94.5757L133.135 84.5501L137.24 95.8243ZM143.774 83.8913L137.28 95.3484L133.262 84.2919L138.093 73.0055L143.774 83.8913ZM154.791 83.3178L149.771 94.9499L144.009 83.8974L150.219 72.9404L154.791 83.3178ZM160.139 71.4315C159.799 74.5592 158.479 87.9035 159.876 94.352L155.01 83.3178L160.139 71.4315ZM133.047 84.2858L129.134 93.4227C130.327 86.9152 127.771 72.6456 127.449 70.9028L128.244 71.0655L133.047 84.2858Z" fill="white"/>
<path id="Vector_25" opacity="0.1" d="M154.553 95.8507L159.483 83.2202L159.298 83.1449L154.543 95.324L149.773 84.1922L156.133 72.2511L155.958 72.1534L149.68 83.9482L144.911 72.8367H144.853L130.718 71.4702L143.82 95.3912L149.656 84.4098L154.553 95.8507ZM149.555 84.1821L143.818 94.9702L131.08 71.7101L144.778 73.034L149.555 84.1821Z" fill="white"/>
<path id="Vector_26" opacity="0.1" d="M133.47 95.2244L133.574 95.0231L145.298 71.8402L145.121 71.7467L133.498 94.7282L129.128 83.1449L128.944 83.2181L133.47 95.2244Z" fill="white"/>
<path id="Vector_27" d="M144.215 67.7263C153.543 67.7263 161.106 69.0014 161.106 70.5733C161.106 72.1453 153.543 73.4203 144.215 73.4203C134.887 73.4203 127.324 72.1453 127.324 70.5733C127.324 69.0014 134.887 67.7263 144.215 67.7263ZM144.215 72.2002C152.776 72.2002 159.715 71.3868 159.715 70.37C159.715 69.3532 152.776 68.5398 144.215 68.5398C135.654 68.5398 128.715 69.3532 128.715 70.37C128.715 71.3868 135.654 72.2002 144.215 72.2002Z" fill="#5F546F"/>
<path id="Vector_28" opacity="0.2" d="M144.215 67.7263C153.543 67.7263 161.106 69.0014 161.106 70.5733C161.106 72.1453 153.543 73.4203 144.215 73.4203C134.887 73.4203 127.324 72.1453 127.324 70.5733C127.324 69.0014 134.887 67.7263 144.215 67.7263ZM144.215 72.2002C152.776 72.2002 159.715 71.3868 159.715 70.37C159.715 69.3532 152.776 68.5398 144.215 68.5398C135.654 68.5398 128.715 69.3532 128.715 70.37C128.715 71.3868 135.654 72.2002 144.215 72.2002Z" fill="black"/>
<path id="Vector_29" opacity="0.4" d="M23.8766 74.0365C21.6033 78.8134 23.05 85.6665 19.8307 89.571C17.4699 92.4343 13.5511 92.418 10.8744 94.8339C8.79179 96.7191 7.75448 99.804 6.81056 102.732L2.22408 116.967C0.135522 123.45 -1.64896 131.796 2.55793 136.549C5.07971 139.396 8.88915 139.719 12.333 139.416C37.2585 137.222 57.3073 111.497 82.1474 108.176C99.7043 105.827 117.051 115.068 134.709 114.558C144.049 114.287 153.168 111.304 162.18 108.327C169.111 106.043 176.804 103.039 180.109 95.3403C181.585 91.8995 182.044 87.7428 184.238 84.9141C185.919 82.7443 188.349 81.7173 190.438 80.1454C199.535 73.2902 200.579 57.957 199.786 45.0458C199.347 37.8835 198.603 30.5504 195.835 24.1935C193.067 17.8365 187.859 12.5797 181.913 12.3723C178.153 12.2401 174.56 14.0744 170.902 15.0993C167.243 16.1242 162.953 16.1547 160.207 13.0657C157.953 10.5299 157.246 6.4566 154.992 3.91463C153.238 1.94002 150.789 1.17336 148.423 0.703605C135.695 -1.8221 122.136 2.5623 112.154 12.4292C109.728 14.8268 107.417 17.5925 104.452 18.8228C100.503 20.4598 96.187 19.0729 92.0118 19.1075C77.2827 19.2295 67.293 35.5429 56.9119 45.8267C50.843 51.84 44.9728 53.1354 38.3872 57.1415C34.3114 59.6225 26.3348 68.8733 23.8766 74.0365Z" fill="url(#paint9_linear_3_2)"/>
<path id="Vector_30" d="M144.215 67.1163C153.543 67.1163 161.106 68.3913 161.106 69.9633C161.106 71.5352 153.543 72.8103 144.215 72.8103C134.887 72.8103 127.324 71.5352 127.324 69.9633C127.324 68.3913 134.887 67.1163 144.215 67.1163ZM144.215 71.5901C152.776 71.5901 159.715 70.7767 159.715 69.7599C159.715 68.7431 152.776 67.9297 144.215 67.9297C135.654 67.9297 128.715 68.7431 128.715 69.7599C128.715 70.7767 135.654 71.5901 144.215 71.5901Z" fill="#5F546F"/>
<path id="Vector_31" opacity="0.1" d="M139.744 151.408H148.488V152.425H139.744V151.408Z" fill="black"/>
<path id="Vector_32" opacity="0.3" d="M163.857 19.4349L184.257 40.4764V45.4586L161.106 18.5259L163.857 19.4349Z" fill="white"/>
<path id="Vector_33" opacity="0.3" d="M156.816 17.4115L184.257 52.9829V58.2559L149.97 16.3662L156.816 17.4115Z" fill="white"/>
<g id="Player">
<path id="Vector_34" opacity="0.1" d="M82.4788 149.753C87.8622 151.3 93.794 149.718 99.0958 151.536C99.5627 151.671 99.9989 151.899 100.38 152.207C101.647 153.34 101.147 155.551 100.014 156.824C98.2036 158.857 95.3579 159.492 92.6851 159.764C79.6292 161.092 66.5713 156.26 53.4995 157.277C51.556 157.43 49.2906 157.594 47.987 156.112C47.0252 155.02 46.9596 153.336 47.4345 151.949C48.3069 149.403 50.7174 147.664 53.255 146.934C55.7927 146.204 58.4814 146.324 61.1164 146.444C64.6934 146.611 68.3001 146.564 71.8672 146.806C75.6806 147.075 78.8661 148.722 82.4788 149.753Z" fill="#6C63FF"/>
<path id="Vector_35" d="M51.3135 119.452C52.7046 119.249 55.276 117.012 55.276 117.012C55.4624 116.727 55.7173 116.495 56.0162 116.34C56.315 116.184 56.648 116.11 56.983 116.123L59.5366 112.449C60.5264 110.708 61.7007 109.084 63.038 107.607C63.2566 107.359 63.4825 107.118 63.7156 106.885C64.4044 106.184 65.1445 105.538 65.9294 104.953C66.4458 104.559 66.9333 104.127 67.388 103.66C67.8083 103.231 68.2063 102.781 68.5803 102.309L70.3569 99.7634L70.4761 99.5905C70.4307 99.3418 70.4187 99.088 70.4403 98.836C70.4403 98.7771 70.4523 98.7181 70.4602 98.6591L77.793 89.8374L79.9789 85.2741C80.0048 85.2965 80.0922 85.3717 80.2293 85.4774L80.2691 85.3615V85.3087V84.9243C80.2802 81.7656 79.5141 78.6549 78.0414 75.879C77.5468 74.947 77.2879 73.9033 77.2882 72.8428C77.2882 72.7574 77.2882 72.672 77.2882 72.5866L77.326 72.5439C77.3956 72.4646 77.5545 72.2815 77.7592 72.0111C77.7334 71.9582 77.7056 71.9033 77.6797 71.8525C76.7696 70.1402 75.5037 69.8474 75.5037 69.8474C71.2432 69.2373 68.171 66.2988 68.171 66.2988C64.9914 64.4685 65.5876 62.8417 65.5876 62.8417L68.4611 55.7445L70.2496 51.9925L70.7444 50.2681C70.9065 49.121 71.1354 47.9849 71.43 46.8659C71.8532 45.2146 73.9617 44.7448 74.9791 46.0972C75.003 46.1297 75.0288 46.1643 75.0526 46.2009C75.5031 46.8671 75.6945 47.6813 75.5894 48.4843C75.4843 49.2872 75.0902 50.0212 74.4843 50.5426C73.4907 51.4089 72.6263 52.2976 72.6263 52.2976C70.8378 52.8039 69.6455 62.2336 69.6455 62.2336L70.8378 63.0471C71.7522 63.0956 72.6468 63.3375 73.4653 63.7575C74.2837 64.1775 75.0082 64.7665 75.5932 65.4874H79.3331C79.3331 65.4711 79.3231 65.4548 79.3172 65.4365L79.9372 65.2942L81.7257 64.8875L82.3874 64.7349L82.3973 64.7776L82.5841 64.7349V64.7614C82.8353 64.3541 83.061 63.931 83.2598 63.4945C83.2064 63.5027 83.1522 63.5027 83.0988 63.4945C83.0849 63.4639 83.073 63.4334 83.0631 63.4029H82.9995C82.7232 62.7929 82.9617 62.0303 82.6954 61.408C82.5517 61.1455 82.3924 60.8922 82.2185 60.6495C81.8211 59.9479 81.8687 59.0694 81.986 58.2641C82.1132 57.3978 82.3079 56.5132 82.7948 55.7913C83.2816 55.0693 84.1222 54.5406 84.9807 54.6545C85.6564 54.746 86.2485 55.2198 86.9282 55.2646C87.4091 55.293 87.8701 55.0998 88.3192 54.9494C88.811 54.7873 89.3157 54.6695 89.8275 54.5975C90.1673 54.5487 90.5667 54.5426 90.7953 54.8009L90.8151 54.8273C90.8439 54.8498 90.8705 54.875 90.8946 54.9026C90.9843 55.0172 91.0518 55.1484 91.0933 55.289L91.5325 56.5274C91.5551 56.5695 91.567 56.6167 91.567 56.6647C91.567 56.7127 91.5551 56.7599 91.5325 56.8019C91.4928 56.8528 91.4232 56.867 91.3696 56.9016C91.0218 57.1314 91.4888 57.6988 91.2006 57.9774C91.0278 58.1441 90.6582 58.1624 90.2925 58.1604C90.6251 58.6968 90.8265 59.3074 90.8796 59.9404C90.9327 60.5735 90.8359 61.2102 90.5975 61.7969C90.359 62.3835 89.9859 62.9026 89.5098 63.3103C89.0336 63.7181 88.4684 64.0023 87.8621 64.1391C87.8621 64.2062 87.8621 64.2733 87.8621 64.3425C87.8527 64.8788 87.8939 65.4147 87.9854 65.9429L88.2755 65.9693C88.7584 65.9958 89.7341 66.0344 90.5866 65.9937C90.8721 65.9821 91.1567 65.9543 91.4391 65.9103C91.4391 65.9103 91.4729 66.2805 91.5385 66.8478L91.7372 66.9048C93.5904 67.4497 95.1998 68.6392 96.2879 70.2683L100.747 72.912C100.747 72.912 102.734 72.4056 108.475 77.4753L112.637 79.7123C112.637 79.7123 118.994 81.6279 117.805 83.5516C116.617 85.4754 110.671 81.2212 110.671 81.2212L108.287 80.1068L101.053 76.853C101.053 76.853 98.6686 75.2262 96.892 74.6161C95.1154 74.006 93.325 72.1758 93.325 72.1758L92.8778 72.1514L92.6791 72.1392C92.7087 72.1938 92.7413 72.2468 92.7765 72.2978C92.7944 72.3263 92.8143 72.3527 92.8341 72.3771V88.7007L92.8659 89.1542H92.852L93.3289 95.7938C93.3289 95.7938 93.2296 98.8442 93.627 100.558C94.0245 102.273 93.3289 109.278 93.3289 109.278C93.3289 109.278 93.0686 109.278 92.6453 109.248L92.6573 109.451L92.8321 112.321C92.8321 112.321 93.166 113.427 91.2424 114.002C90.8018 114.133 90.3826 114.33 89.9984 114.586L87.7807 116.073L85.5014 117.496L85.0403 118.487L85.0185 118.535L85.5033 118.232C85.5033 118.232 85.9008 119.249 84.6111 120.565C84.1281 121.007 83.7514 121.557 83.5101 122.173C83.2689 122.788 83.1696 123.452 83.22 124.113C83.22 124.113 83.0213 126.554 81.829 125.944C81.829 125.944 79.9471 125.537 80.0405 122.192C80.0405 122.192 80.7917 119.406 79.9173 118.228C79.8935 118.196 79.8683 118.165 79.8418 118.135C78.8482 117.02 80.1399 115.288 80.1399 115.288C80.1399 115.288 82.4351 114.34 82.5643 115.914L82.6597 115.871C83.073 115.668 83.8142 115.174 84.5992 113.97C84.5992 113.97 85.8869 110.625 87.8681 110.32L87.5363 108.394L87.4985 108.172C86.8169 107.843 86.2644 107.418 85.9862 106.871L85.9743 106.846V106.836V106.822V106.808V106.793L85.9644 106.773V106.757L85.9544 106.734L85.9425 106.71V106.69L85.9286 106.661L85.8908 106.641L85.8769 106.61L85.865 106.584L85.8491 106.549L85.8352 106.521L85.8193 106.486L85.8014 106.45L85.7875 106.421L85.7676 106.379L85.7537 106.35L85.6683 106.161L85.6564 106.137L85.6325 106.084L85.6146 106.045L85.5888 105.986L85.5729 105.952L85.5431 105.882L85.5312 105.854L85.4994 105.783L85.4835 105.748L85.4517 105.675L85.4378 105.642L85.404 105.565L85.3901 105.535L85.3543 105.453L85.3424 105.423L85.3066 105.337L85.2947 105.309L85.2549 105.217V105.201C84.621 103.692 83.8242 101.522 83.8639 100.237C83.8587 100.135 83.8587 100.032 83.8639 99.9301H83.8877V99.9098C83.8877 99.8671 83.9036 99.8264 83.9156 99.7877L78.566 101.008L75.3865 104.556H75.3726H75.3607H75.3467H75.3308H75.315L75.2951 104.546H75.2772L75.2514 104.534L75.2315 104.524L75.2037 104.51L75.1798 104.498L75.146 104.479L75.1242 104.467L75.0864 104.447L75.0626 104.432L75.0228 104.412L74.995 104.396L74.9513 104.371L74.9235 104.357L74.8778 104.331L74.846 104.312L74.7963 104.284L74.7625 104.201L74.7069 104.168L74.6771 104.152L74.6194 104.119L74.5856 104.099L74.526 104.064L74.4942 104.044L74.4307 104.005L74.3969 103.985L74.3313 103.944L74.2995 103.924L74.2299 103.881H74.218L74.1067 104.014L72.7157 105.665C71.3247 106.275 68.157 109.315 68.157 109.315C67.7914 110.212 66.2434 111.493 65.4525 112.107C65.2263 112.278 64.9863 112.429 64.7351 112.559C64.3019 112.788 63.6918 113.335 63.1334 113.889C62.4047 114.626 61.6229 115.305 60.7945 115.922C60.0283 116.52 59.3469 117.223 58.7695 118.013L58.7019 118.102C59.1749 119.729 56.4683 121.382 56.4683 121.382C55.4747 121.179 52.4065 124.026 52.4065 124.026C52.4065 124.026 49.533 126.359 48.3446 123.823C47.1563 121.287 51.3135 119.452 51.3135 119.452ZM56.5637 116.736L56.9611 116.16C56.8532 116.212 56.7604 116.292 56.6918 116.392C56.6231 116.492 56.5811 116.608 56.5697 116.73L56.5637 116.736Z" fill="url(#paint10_linear_3_2)"/>
<path id="Vector_36" d="M81.2746 66.9556C81.2746 66.9556 91.3 72.9323 89.1578 69.5444C88.2313 68.1174 87.7466 66.4379 87.7668 64.7248C87.7672 64.1655 87.8407 63.6088 87.9854 63.0694L83.8003 61.0765C83.8728 61.6632 83.8213 62.2589 83.6493 62.8234C83.0631 64.9424 81.2746 66.9556 81.2746 66.9556Z" fill="#DB8B8B"/>
<path id="Vector_37" opacity="0.1" d="M83.6553 62.8254C84.0524 63.5515 84.6667 64.128 85.4079 64.4703C86.149 64.8126 86.9779 64.9025 87.7727 64.7268C87.7731 64.1675 87.8467 63.6108 87.9913 63.0715L83.8063 61.0786C83.8788 61.6652 83.8273 62.2609 83.6553 62.8254Z" fill="black"/>
<path id="Vector_38" d="M86.9679 64.615C84.8717 64.615 83.1724 62.876 83.1724 60.7308C83.1724 58.5857 84.8717 56.8467 86.9679 56.8467C89.0642 56.8467 90.7635 58.5857 90.7635 60.7308C90.7635 62.876 89.0642 64.615 86.9679 64.615Z" fill="#DB8B8B"/>
<path id="Vector_39" opacity="0.1" d="M89.3943 58.6647C89.0275 58.7416 88.7037 58.9601 88.4901 59.2748C88.2398 59.6815 88.2457 60.2387 87.894 60.5559C87.6286 60.7567 87.2968 60.8429 86.9699 60.7959C86.6469 60.7478 86.3197 60.7363 85.9942 60.7613C85.4676 60.8488 85.0364 61.2474 84.7443 61.7029C84.4786 62.1753 84.2424 62.6643 84.0368 63.1671C83.9528 63.3665 83.8328 63.5479 83.6831 63.7019C83.6075 63.7782 83.5154 63.8353 83.4142 63.8685C83.3131 63.9017 83.2058 63.9101 83.1009 63.8931C82.8286 63.283 83.0631 62.5428 82.8028 61.9347C82.662 61.6772 82.506 61.4286 82.3358 61.1904C81.9383 60.501 81.992 59.6388 82.1092 58.8477C82.2344 57.9957 82.4252 57.1273 82.9041 56.4196C83.383 55.712 84.2077 55.1995 85.0423 55.3032C85.7061 55.3927 86.2883 55.8584 86.956 55.8991C87.427 55.9275 87.8821 55.7384 88.3312 55.5899C88.8139 55.4307 89.3092 55.3151 89.8116 55.2442C90.1455 55.1975 90.537 55.1893 90.7615 55.4476C90.8508 55.5595 90.9182 55.6879 90.9602 55.8258L91.3915 57.046C91.4137 57.0874 91.4254 57.1339 91.4254 57.1812C91.4254 57.2285 91.4137 57.275 91.3915 57.3165C91.3517 57.3653 91.2841 57.3795 91.2325 57.4161C90.8907 57.6418 91.3497 58.199 91.0675 58.4736C90.7854 58.7481 89.7898 58.5691 89.3943 58.6647Z" fill="black"/>
<path id="Vector_40" d="M89.2969 58.5651C88.9301 58.6419 88.6063 58.8604 88.3928 59.1751C88.1424 59.5818 88.1483 60.139 87.7966 60.4563C87.5312 60.657 87.1994 60.7432 86.8725 60.6962C86.5495 60.6482 86.2223 60.6366 85.8968 60.6617C85.3702 60.7491 84.939 61.1477 84.6469 61.6032C84.3813 62.0756 84.145 62.5646 83.9394 63.0674C83.8554 63.2668 83.7354 63.4483 83.5857 63.6022C83.5101 63.6786 83.418 63.7356 83.3169 63.7688C83.2157 63.802 83.1084 63.8104 83.0035 63.7934C82.7312 63.1833 82.9657 62.4431 82.7054 61.835C82.5646 61.5775 82.4087 61.3289 82.2384 61.0908C81.8409 60.4014 81.8946 59.5391 82.0118 58.7481C82.137 57.896 82.3278 57.0277 82.8067 56.32C83.2856 55.6123 84.1103 55.0998 84.945 55.2035C85.6087 55.293 86.1909 55.7587 86.8586 55.7994C87.3296 55.8279 87.7847 55.6387 88.2338 55.4903C88.7165 55.3311 89.2118 55.2154 89.7142 55.1446C90.0481 55.0978 90.4396 55.0897 90.6641 55.3479C90.7534 55.4599 90.8208 55.5883 90.8629 55.7262L91.2941 56.9463C91.3163 56.9878 91.328 57.0343 91.328 57.0816C91.328 57.1288 91.3163 57.1754 91.2941 57.2168C91.2543 57.2656 91.1868 57.2798 91.1351 57.3164C90.7933 57.5422 91.2523 58.0994 90.9702 58.3739C90.688 58.6484 89.6924 58.4695 89.2969 58.5651Z" fill="#472727"/>
<path id="Vector_41" d="M68.4273 66.6567C68.4273 66.6567 71.4439 69.5443 75.6289 70.1422C75.6289 70.1422 76.8729 70.431 77.7672 72.1128C78.093 72.7449 78.3241 73.4236 78.4528 74.126L82.9438 66.3394L83.222 65.8575H75.7283C75.153 65.1507 74.4408 64.5735 73.6368 64.1623C72.8327 63.751 71.9541 63.5146 71.0564 63.468L69.8879 62.6708C69.8879 62.6708 71.0564 53.4079 72.8071 52.9097C72.8071 52.9097 73.6616 52.0352 74.6334 51.1852C75.2299 50.6727 75.6179 49.9507 75.7212 49.1607C75.8245 48.3706 75.6357 47.5696 75.1918 46.9147C75.1679 46.8801 75.1441 46.8455 75.1182 46.813C74.1246 45.4851 72.048 45.9467 71.6307 47.5695C71.3409 48.6718 71.1159 49.7909 70.957 50.9208L70.4702 52.6148L68.7175 56.2996L65.8956 63.2708C65.8956 63.2708 65.3134 64.8651 68.4273 66.6567Z" fill="#DB8B8B"/>
<path id="Vector_42" d="M90.8132 67.0553L91.3974 72.3426L92.7109 72.4178L93.1501 72.4422C93.1501 72.4422 94.9028 74.2358 96.6535 74.8317C98.4043 75.4275 100.741 77.0239 100.741 77.0239L107.845 80.2044L110.18 81.3005C110.18 81.3005 116.021 85.4917 117.189 83.5903C118.358 81.6889 112.122 79.7977 112.122 79.7977L108.034 77.6055C102.389 72.6252 100.443 73.1316 100.443 73.1316L96.0713 70.5429C95.0028 68.9426 93.4223 67.7739 91.6021 67.2383C91.3438 67.1576 91.0802 67.0964 90.8132 67.0553Z" fill="#DB8B8B"/>
<path id="Vector_43" opacity="0.1" d="M77.7672 72.1128C78.093 72.7449 78.3241 73.4236 78.4528 74.126L82.9438 66.3394C82.8368 66.1875 82.743 66.0262 82.6637 65.8575C82.5487 65.6189 82.4581 65.3688 82.3934 65.1111L81.7436 65.2616L79.9849 65.6683L79.3748 65.8087C79.3748 65.8249 79.3868 65.8412 79.3907 65.8575C80.2095 68.3181 78.6654 70.8946 77.7672 72.1128Z" fill="black"/>
<path id="Vector_44" opacity="0.1" d="M90.8132 67.0553L91.3974 72.3426L92.7109 72.4178C92.1525 71.401 91.773 68.7086 91.6001 67.2464C91.3427 67.163 91.0797 67.0992 90.8132 67.0553Z" fill="black"/>
<path id="Vector_45" d="M78.1209 75.9684C79.5811 78.7212 80.3333 81.8086 80.3068 84.9406V85.331V85.3819C80.3068 85.3819 79.2357 88.3692 80.3068 88.3692C81.3779 88.3692 81.2806 89.8639 82.6418 90.1628C84.003 90.4618 88.7743 92.5523 90.2329 91.6575C91.6915 90.7627 92.6653 88.8695 92.6653 88.8695V72.6334C92.6454 72.609 92.6255 72.5825 92.6076 72.5541C91.767 71.3339 91.302 66.25 91.302 66.25C91.0242 66.2937 90.7443 66.3215 90.4634 66.3333C89.6268 66.374 88.675 66.3333 88.1941 66.3089L87.896 66.2906C87.0554 66.9637 85.9088 67.0614 85.3404 67.0614C85.1409 67.0621 84.9417 67.0771 84.7443 67.1061C83.1008 67.342 82.6001 65.1071 82.6001 65.1071L81.9503 65.2576L80.1916 65.6643L79.5815 65.8046C80.6765 68.979 77.793 72.3731 77.4294 72.7839L77.3916 72.8266C77.3607 73.9212 77.6122 75.0049 78.1209 75.9684Z" fill="#6C63FF"/>
<path id="Vector_46" opacity="0.3" d="M90.4614 66.3415C90.4614 67.6613 90.7694 72.0355 92.6613 72.6679V72.6334C92.6414 72.609 92.6215 72.5825 92.6036 72.5541C91.7631 71.3339 91.298 66.25 91.298 66.25C91.021 66.2963 90.7417 66.3269 90.4614 66.3415Z" fill="white"/>
<path id="Vector_47" opacity="0.3" d="M77.4194 72.79C80.9805 72.6029 80.5592 67.8362 80.1816 65.6724L79.5716 65.8127C80.6665 68.9851 77.7851 72.3792 77.4194 72.79Z" fill="white"/>
<path id="Vector_48" d="M77.3817 72.9323C77.3827 72.922 77.387 72.9123 77.3937 72.9046C77.4005 72.897 77.4095 72.8917 77.4194 72.8896C78.2143 72.6862 77.332 72.9811 78.2143 72.6862C78.2481 72.674 78.1666 72.5378 78.1666 72.5378C78.1398 73.6313 78.3947 74.7128 78.9059 75.6736C80.366 78.4263 81.1182 81.5137 81.0918 84.6457V85.0362V85.085C81.0918 85.085 80.0207 88.0723 81.0918 88.0723C82.1629 88.0723 82.0655 89.567 83.4267 89.8659C84.6747 90.1405 88.7783 91.9158 90.5807 91.5233C90.4694 91.6067 90.3561 91.686 90.2389 91.7571C88.7783 92.654 84.009 90.5614 82.6478 90.2625C81.2865 89.9635 81.3819 88.4689 80.3128 88.4689C79.2437 88.4689 80.3128 85.4815 80.3128 85.4815V85.4307V85.0402C80.3392 81.9082 79.587 78.8208 78.1269 76.0681C77.6137 75.1079 77.3567 74.0264 77.3817 72.9323Z" fill="#475FE1"/>
<path id="Vector_49" d="M87.6595 66.5021C87.7052 66.4696 87.7529 66.435 87.7966 66.4005H87.8999C87.8205 66.4411 87.739 66.4716 87.6595 66.5021Z" fill="black"/>
<path id="Vector_50" d="M56.9433 116.357L58.1098 119.046C58.4428 118.485 58.8077 117.946 59.2027 117.429C59.7694 116.654 60.4382 115.964 61.1899 115.377C62.0036 114.771 62.7715 114.104 63.4871 113.38C64.0356 112.837 64.6357 112.298 65.061 112.073C65.3081 111.946 65.5441 111.797 65.7665 111.629C66.5415 111.019 68.0637 109.769 68.4234 108.888C68.4234 108.888 71.5373 105.901 72.9005 105.303L74.2598 103.676L75.8217 101.811L71.8314 97.7277L70.657 99.4095L68.9102 101.911C68.1201 102.916 67.2162 103.821 66.2176 104.607C65.2227 105.346 64.3038 106.186 63.4752 107.115C62.1688 108.569 61.0226 110.165 60.0572 111.875L57.5474 115.485L57.5295 115.513L57.1321 116.081L56.9433 116.357Z" fill="#DB8B8B"/>
<path id="Vector_51" d="M81.6641 116.656L83.2221 120.441L84.4859 119.046L85.0066 117.927L85.4596 116.953L87.6992 115.558L89.8851 114.098C90.2627 113.846 90.6745 113.653 91.1073 113.525C92.9971 112.959 92.6712 111.873 92.6712 111.873L92.4983 109.055L92.3791 107.092L87.2124 106.495L87.4707 107.989L87.7966 109.88C85.8491 110.179 84.5853 113.466 84.5853 113.466C83.8162 114.647 83.0869 115.137 82.6796 115.332C82.5735 115.387 82.4614 115.429 82.3457 115.456L81.6641 116.656Z" fill="#DB8B8B"/>
<path id="Vector_52" opacity="0.1" d="M57.5295 115.515L57.5752 115.489H57.5474L57.5295 115.515Z" fill="black"/>
<path id="Vector_53" opacity="0.1" d="M56.9433 116.357L58.1098 119.046C58.4428 118.485 58.8077 117.946 59.2027 117.429C59.0239 117.604 58.0243 118.535 57.7044 117.685C57.5818 117.339 57.4405 116.999 57.2811 116.669C57.1823 116.492 57.1322 116.292 57.136 116.089L56.9433 116.357Z" fill="black"/>
<path id="Vector_54" opacity="0.1" d="M57.0387 116.18L57.4361 115.613L57.454 115.585L59.9638 111.975C60.9313 110.266 62.0795 108.671 63.3878 107.218C64.2164 106.29 65.1352 105.449 66.1301 104.711C67.1288 103.924 68.0327 103.019 68.8228 102.015L70.5636 99.5234L71.738 97.8416L71.9089 98.0165L70.8577 99.5234L69.1109 102.025C68.3197 103.027 67.4152 103.929 66.4163 104.713C65.4214 105.452 64.5026 106.292 63.6739 107.22C62.3679 108.672 61.2217 110.267 60.2559 111.975L57.7421 115.589L57.7243 115.617L57.3268 116.185L57.1281 116.461L58.1734 118.869C58.0641 119.046 58.0025 119.149 58.0025 119.149L56.834 116.461L57.0387 116.18Z" fill="black"/>
<path id="Vector_55" opacity="0.1" d="M81.6641 116.656L83.2221 120.441L84.4859 119.046L85.0066 117.927L83.5122 118.944C82.0437 118.005 82.61 115.603 82.6776 115.334C82.5715 115.389 82.4594 115.431 82.3437 115.459L81.6641 116.656Z" fill="black"/>
<path id="Vector_56" d="M82.5881 115.412C82.5881 115.412 81.8588 118.055 83.4148 119.048L85.4596 117.653C85.4596 117.653 85.8571 118.649 84.5833 119.945C84.1094 120.379 83.7399 120.92 83.5035 121.524C83.2671 122.129 83.1701 122.781 83.2201 123.43C83.2201 123.43 83.0213 125.82 81.8568 125.224C81.8568 125.224 80.0067 124.817 80.1041 121.539C80.1041 121.539 80.8414 118.804 79.9829 117.647C79.9591 117.615 79.9345 117.585 79.9094 117.555C78.9356 116.459 80.2015 114.767 80.2015 114.767C80.2015 114.767 82.4907 113.819 82.5881 115.412Z" fill="#535461"/>
<path id="Vector_57" opacity="0.1" d="M80.3009 88.3712C81.372 88.3712 81.2746 89.8659 82.6358 90.1649C83.9971 90.4638 88.7683 92.5543 90.2269 91.6595C91.6856 90.7648 92.6593 88.8715 92.6593 88.8715V88.6681C90.2269 89.9635 87.2084 88.6681 87.2084 88.6681C85.0582 89.0911 81.36 86.2055 80.2989 85.329V85.3798C80.2989 85.3798 79.2318 88.3712 80.3009 88.3712Z" fill="black"/>
<path id="Vector_58" opacity="0.1" d="M92.3711 107.094L87.2044 106.497L87.4628 107.991C89.0625 108.752 91.3656 108.986 92.4824 109.057L92.3711 107.094Z" fill="black"/>
<path id="Vector_59" opacity="0.1" d="M70.6609 99.4136C70.9054 101.244 72.9045 102.816 74.2637 103.684L75.8257 101.819L71.8354 97.7359L70.6609 99.4136Z" fill="black"/>
<path id="Vector_60" d="M87.2124 88.8674C87.2124 88.8674 90.2289 90.1628 92.6633 88.8674L93.1501 95.6413C93.1501 95.6413 93.0527 98.6286 93.4422 100.319C93.8317 102.008 93.1501 108.884 93.1501 108.884C93.1501 108.884 87.115 108.784 85.9485 106.495C85.9485 106.495 83.4188 101.315 83.9037 99.5234L78.6475 100.719L75.5316 104.201C75.5316 104.201 70.1781 101.612 70.6649 98.4232L77.8685 89.7622L80.0087 85.2883C80.0087 85.2883 84.6807 89.3657 87.2124 88.8674Z" fill="#6C63FF"/>
<path id="Vector_61" opacity="0.1" d="M75.5316 104.201L78.6455 100.715L83.9037 99.5234C83.8917 99.5681 83.8818 99.6149 83.8719 99.6637C83.8557 99.7591 83.8464 99.8556 83.844 99.9525C83.7626 102.025 85.9465 106.497 85.9465 106.497C87.115 108.788 93.1481 108.886 93.1481 108.886C93.1481 108.886 93.8397 102.017 93.4422 100.323C93.0448 98.6286 93.1501 95.6453 93.1501 95.6453L92.6811 89.1237L92.6633 88.8735C91.9837 89.2236 91.2378 89.418 90.4773 89.4429C89.4003 89.4748 88.3272 89.296 87.3157 88.9162L87.2124 88.8735C87.1554 88.8844 87.0971 88.8932 87.0375 88.9C84.9469 89.1359 81.5945 86.5858 80.428 85.6361C80.1638 85.4205 80.0107 85.2883 80.0107 85.2883L77.8685 89.7622L70.6669 98.4273C70.6514 98.5269 70.6421 98.6274 70.6391 98.7283C70.5139 101.779 75.5316 104.201 75.5316 104.201Z" fill="black"/>
<path id="Vector_62" opacity="0.3" d="M81.9403 65.2637C84.1083 69.2719 87.3058 67.0532 88.1921 66.3171L87.894 66.2988C87.0534 66.9719 85.9068 67.0695 85.3384 67.0695C85.1389 67.0703 84.9397 67.0852 84.7423 67.1142C83.0988 67.3501 82.5981 65.1152 82.5981 65.1152L81.9403 65.2637Z" fill="white"/>
<path id="Vector_63" d="M57.4739 115.989C57.1405 115.969 56.808 116.04 56.5093 116.192C56.2107 116.345 55.9561 116.575 55.7708 116.859C55.7708 116.859 53.2431 119.039 51.8819 119.242C51.8819 119.242 47.7942 121.036 48.9627 123.525C50.1311 126.014 52.953 123.728 52.953 123.728C52.953 123.728 55.9695 120.94 56.9433 121.14C56.9433 121.14 59.62 119.497 59.1292 117.902C59.1292 117.902 57.9567 119.122 57.603 118.185C57.4812 117.838 57.3405 117.499 57.1817 117.168C56.993 116.786 56.8956 116.288 57.4739 115.989Z" fill="#535461"/>
<path id="Vector_64" opacity="0.1" d="M87.8522 88.8918C88.8697 89.1948 90.9165 89.5995 92.6613 88.6702L92.6931 89.1155C90.5767 89.9025 88.2358 89.0443 87.8522 88.8918Z" fill="black"/>
<path id="Vector_65" opacity="0.1" d="M85.6405 88.5421C86.1473 88.71 86.6851 88.7566 87.2124 88.6783C87.2124 88.6783 87.427 88.7698 87.7847 88.8817C87.1627 88.9894 86.4155 88.8329 85.6405 88.5421Z" fill="black"/>
<path id="Vector_66" opacity="0.1" d="M70.6371 98.7303C70.7305 101.685 75.5316 104.007 75.5316 104.007L75.5991 103.932C74.2697 103.186 70.8557 101.004 71.2492 98.4293L78.4528 89.7622L80.428 85.6279C80.1637 85.4124 80.0107 85.2802 80.0107 85.2802L77.8685 89.7541L70.6669 98.4191C70.6503 98.5221 70.6404 98.626 70.6371 98.7303Z" fill="black"/>
<path id="Vector_67" opacity="0.1" d="M84.4859 99.5234C83.999 101.317 86.5307 106.494 86.5307 106.494C86.8765 107.172 87.6456 107.658 88.5597 108.005C87.3991 107.652 86.3638 107.113 85.9465 106.295C85.9465 106.295 83.701 101.699 83.848 99.6678L84.4859 99.5234Z" fill="black"/>
<path id="Vector_68" opacity="0.3" d="M86.1413 73.6786C87.5124 73.6786 88.6233 75.3055 88.6233 77.3147C88.6233 79.3238 87.5124 80.9507 86.1413 80.9507C84.7701 80.9507 83.6592 79.3238 83.6592 77.3147C83.6592 75.3055 84.7701 73.6786 86.1413 73.6786ZM86.1413 79.456C86.9481 79.456 87.6038 78.4982 87.6038 77.3147C87.6038 76.1311 86.95 75.1733 86.1413 75.1733C85.3325 75.1733 84.6787 76.1311 84.6787 77.3147C84.6787 78.4982 85.3344 79.456 86.1413 79.456Z" fill="white"/>
<path id="Vector_69" d="M69.874 48.0189C69.874 48.1369 69.874 48.2535 69.874 48.3687C69.874 48.4317 69.874 48.4948 69.8879 48.5558C69.9713 49.6004 70.3132 50.6061 70.8815 51.478C70.9193 51.537 70.959 51.5939 70.9988 51.6509C71.5407 52.4285 72.2561 53.0626 73.0856 53.5005C73.9151 53.9383 74.8347 54.1673 75.7681 54.1685C75.9012 54.1685 76.0343 54.1685 76.1655 54.1542C76.2966 54.14 76.4099 54.1339 76.5311 54.1176C77.3736 54.0007 78.1813 53.6987 78.8989 53.2321C79.6165 52.7656 80.227 52.1457 80.6884 51.415C80.7202 51.3682 80.75 51.3174 80.7778 51.2706V51.2604C81.3605 50.2845 81.668 49.1626 81.6661 48.0189C81.6664 47.7141 81.6452 47.4096 81.6025 47.1079L81.5707 46.9045C81.4095 45.9741 81.041 45.0942 80.4937 44.3331C79.9464 43.572 79.2351 42.9503 78.415 42.516L78.2004 42.4083C77.5029 42.0789 76.7487 41.8937 75.981 41.8633C75.2134 41.8329 74.4475 41.958 73.7272 42.2313C73.5396 42.3027 73.3559 42.3842 73.1767 42.4754C71.8567 43.1482 70.8257 44.296 70.2814 45.6986C70.2615 45.7454 70.2456 45.7901 70.2297 45.8369C69.9848 46.5367 69.8644 47.2757 69.874 48.0189Z" fill="#F88787"/>
<path id="Vector_70" opacity="0.5" d="M70.2536 45.8369C70.6316 45.9516 71.0238 46.0098 71.4181 46.0097H71.4856H71.6406C71.736 46.0097 71.8294 45.9975 71.9188 45.9853C72.6917 45.8908 73.4322 45.6122 74.0809 45.1719C75.8158 43.362 77.5148 42.7438 78.4329 42.5283L78.2183 42.4205C77.3161 42.6543 75.8515 43.2339 74.3273 44.6981C73.9344 45.0785 73.4708 45.3745 72.9641 45.5684C72.6159 45.7002 72.2537 45.7896 71.8851 45.8348C71.8056 45.8348 71.7281 45.8511 71.6506 45.8572H71.4936C71.0908 45.8685 70.6886 45.8164 70.3013 45.7027C70.2874 45.7535 70.2695 45.7982 70.2536 45.8369Z" fill="white"/>
<path id="Vector_71" opacity="0.5" d="M69.8839 48.3687C69.8839 48.4317 69.8839 48.4948 69.8979 48.5558C70.4061 48.2231 70.9494 47.9503 71.5174 47.7423L71.6665 47.6874C73.0207 47.2218 74.4197 46.9055 75.8396 46.7439C79.1781 46.3087 80.8434 46.7154 81.6363 47.1018L81.6045 46.8984C80.746 46.512 79.0549 46.1602 75.8197 46.5812C74.4008 46.7433 73.0022 47.0561 71.6466 47.5146L71.4975 47.5695C70.9329 47.7752 70.3919 48.0432 69.8839 48.3687Z" fill="white"/>
<path id="Vector_72" opacity="0.5" d="M71.4976 47.5837C71.4976 47.6387 71.5095 47.6936 71.5154 47.7505C71.5499 48.0284 71.5989 48.3192 71.6625 48.6229C71.7115 48.852 71.7658 49.0723 71.8254 49.2838C71.8413 49.3387 71.8572 49.3936 71.8731 49.4465C72.6283 51.9214 74.1644 53.1761 75.3786 53.8024C75.6364 53.9366 75.9018 54.0547 76.1734 54.1563L76.5391 54.1197C76.1577 53.9982 75.7868 53.8445 75.4302 53.6601C74.2379 53.05 72.7296 51.8034 71.9944 49.353C71.9785 49.3042 71.9645 49.2533 71.9506 49.2025C71.895 49.0059 71.8447 48.8025 71.7996 48.5924C71.7347 48.2874 71.685 47.9891 71.6506 47.6976C71.6506 47.6427 71.6387 47.5858 71.6327 47.5309C71.582 47.0265 71.582 46.5182 71.6327 46.0138C71.6327 45.961 71.6426 45.9081 71.6506 45.8572C71.7717 44.7618 72.236 43.736 72.9741 42.933C73.2151 42.6745 73.4814 42.4422 73.7689 42.2395C73.5814 42.3109 73.3976 42.3923 73.2185 42.4835C73.1019 42.5879 72.9866 42.7018 72.8727 42.8252C72.1132 43.6612 71.6384 44.7263 71.5194 45.8613C71.5194 45.9121 71.5075 45.965 71.5015 46.0159C71.4471 46.5369 71.4458 47.0624 71.4976 47.5837Z" fill="white"/>
<path id="Vector_73" opacity="0.5" d="M70.8974 51.4801C70.9352 51.539 70.9749 51.596 71.0147 51.6529C71.1815 50.9127 71.4491 50.2001 71.8095 49.536C71.8285 49.5029 71.8519 49.4728 71.8791 49.4465C71.9188 49.4094 71.9637 49.3786 72.0122 49.355C72.7773 48.9666 75.0626 49.6173 76.7617 50.5568C78.0692 51.2808 79.7802 51.4089 80.7162 51.417L80.8056 51.2726V51.2625C79.9114 51.2625 78.1547 51.1527 76.8312 50.4206C75.2414 49.5461 72.8767 48.7937 71.9665 49.2004C71.9183 49.222 71.8724 49.2486 71.8294 49.2797C71.767 49.3253 71.7142 49.3835 71.6744 49.4505C71.3301 50.0895 71.0689 50.7718 70.8974 51.4801Z" fill="white"/>
</g>
</g>
<defs>
<linearGradient id="paint0_linear_3_2" x1="144.007" y1="155.858" x2="144.007" y2="72.554" gradientUnits="userSpaceOnUse">
<stop stop-color="#808080" stop-opacity="0.25"/>
<stop offset="0.54" stop-color="#808080" stop-opacity="0.12"/>
<stop offset="1" stop-color="#808080" stop-opacity="0.1"/>
</linearGradient>
<linearGradient id="paint1_linear_3_2" x1="143.804" y1="159.587" x2="143.804" y2="153.163" gradientUnits="userSpaceOnUse">
<stop stop-color="#808080" stop-opacity="0.25"/>
<stop offset="0.54" stop-color="#808080" stop-opacity="0.12"/>
<stop offset="1" stop-color="#808080" stop-opacity="0.1"/>
</linearGradient>
<linearGradient id="paint2_linear_3_2" x1="144.513" y1="73.3146" x2="144.513" y2="12.9214" gradientUnits="userSpaceOnUse">
<stop stop-color="#808080" stop-opacity="0.25"/>
<stop offset="0.54" stop-color="#808080" stop-opacity="0.12"/>
<stop offset="1" stop-color="#808080" stop-opacity="0.1"/>
</linearGradient>
<linearGradient id="paint3_linear_3_2" x1="144.513" y1="71.4051" x2="144.513" y2="14.8309" gradientUnits="userSpaceOnUse">
<stop stop-color="#808080" stop-opacity="0.25"/>
<stop offset="0.54" stop-color="#808080" stop-opacity="0.12"/>
<stop offset="1" stop-color="#808080" stop-opacity="0.1"/>
</linearGradient>
<linearGradient id="paint4_linear_3_2" x1="144.615" y1="67.5819" x2="144.615" y2="48.932" gradientUnits="userSpaceOnUse">
<stop stop-color="#808080" stop-opacity="0.25"/>
<stop offset="0.54" stop-color="#808080" stop-opacity="0.12"/>
<stop offset="1" stop-color="#808080" stop-opacity="0.1"/>
</linearGradient>
<linearGradient id="paint5_linear_3_2" x1="144.615" y1="65.9978" x2="144.615" y2="50.5141" gradientUnits="userSpaceOnUse">
<stop stop-color="#808080" stop-opacity="0.25"/>
<stop offset="0.54" stop-color="#808080" stop-opacity="0.12"/>
<stop offset="1" stop-color="#808080" stop-opacity="0.1"/>
</linearGradient>
<linearGradient id="paint6_linear_3_2" x1="144.209" y1="73.1763" x2="144.209" y2="67.3745" gradientUnits="userSpaceOnUse">
<stop stop-color="#808080" stop-opacity="0.25"/>
<stop offset="0.54" stop-color="#808080" stop-opacity="0.12"/>
<stop offset="1" stop-color="#808080" stop-opacity="0.1"/>
</linearGradient>
<linearGradient id="paint7_linear_3_2" x1="144.209" y1="73.1763" x2="144.209" y2="67.3745" gradientUnits="userSpaceOnUse">
<stop stop-color="#808080" stop-opacity="0.25"/>
<stop offset="0.54" stop-color="#808080" stop-opacity="0.12"/>
<stop offset="1" stop-color="#808080" stop-opacity="0.1"/>
</linearGradient>
<linearGradient id="paint8_linear_3_2" x1="144.209" y1="72.5561" x2="144.209" y2="66.7543" gradientUnits="userSpaceOnUse">
<stop stop-color="#808080" stop-opacity="0.25"/>
<stop offset="0.54" stop-color="#808080" stop-opacity="0.12"/>
<stop offset="1" stop-color="#808080" stop-opacity="0.1"/>
</linearGradient>
<linearGradient id="paint9_linear_3_2" x1="100" y1="0.0022583" x2="100" y2="139.508" gradientUnits="userSpaceOnUse">
<stop stop-color="#2346FD"/>
<stop offset="0.7375" stop-color="#F54035"/>
</linearGradient>
<linearGradient id="paint10_linear_3_2" x1="83.0432" y1="126.033" x2="83.0432" y2="45.3346" gradientUnits="userSpaceOnUse">
<stop stop-color="#808080" stop-opacity="0.25"/>
<stop offset="0.54" stop-color="#808080" stop-opacity="0.12"/>
<stop offset="1" stop-color="#808080" stop-opacity="0.1"/>
</linearGradient>
<clipPath id="clip0_3_2">
<rect width="200" height="160" fill="white" transform="matrix(-1 0 0 1 200 0)"/>
</clipPath>
</defs>
</svg>
