<svg width="1200" height="839" viewBox="0 0 1200 839" fill="none" xmlns="http://www.w3.org/2000/svg">
<g id="Frame 1">
<g id="undraw_snowman_re_guxt 1">
<path id="Vector" d="M510.66 600.51L537.692 567.191L405.458 460.261L378.426 493.579L510.66 600.51Z" fill="#F2F2F2"/>
<path id="Vector_2" d="M316.219 438.969C317.752 431.069 324.267 424.033 332.269 423.067C341.205 421.988 349.397 428.119 355.372 434.84C356.666 436.296 358.279 437.944 360.205 437.647C360.97 437.457 361.658 437.04 362.18 436.451C362.701 435.861 363.031 435.128 363.126 434.347C363.286 432.783 363.122 431.202 362.646 429.703C361.81 426.271 360.994 422.767 361.246 419.244C361.498 415.721 362.983 412.114 365.904 410.121C368.825 408.127 373.292 408.282 375.519 411.027C378.034 414.128 376.872 418.644 376.93 422.634C377.024 429.024 380.617 434.896 385.041 439.514C389.466 444.133 394.769 447.817 399.438 452.189C400.033 452.746 400.623 453.339 401.184 453.961L401.576 453.478C402.346 452.528 403.296 451.74 404.372 451.157C405.447 450.574 406.627 450.208 407.844 450.081C409.061 449.953 410.292 450.066 411.465 450.413C412.638 450.76 413.732 451.335 414.683 452.104V452.104C415.634 452.873 416.424 453.821 417.007 454.895C417.591 455.969 417.957 457.147 418.085 458.362C418.213 459.577 418.1 460.805 417.752 461.977C417.404 463.148 416.829 464.24 416.059 465.189L384.947 503.537C384.176 504.486 383.226 505.275 382.151 505.857C381.075 506.44 379.895 506.806 378.678 506.934C377.461 507.061 376.231 506.948 375.058 506.601C373.884 506.254 372.791 505.679 371.84 504.91H371.84C369.919 503.357 368.695 501.106 368.437 498.652C368.179 496.198 368.908 493.743 370.464 491.825L373.478 488.11C370.099 485.003 366.167 482.556 361.885 480.895C355.658 478.339 349.036 476.878 342.725 474.538C335.17 471.735 327.95 467.553 322.775 461.384C317.601 455.214 314.686 446.868 316.219 438.969Z" fill="#6C63FF"/>
<path id="Vector_3" d="M621.057 462.666C670.286 462.666 710.193 422.824 710.193 373.677C710.193 324.529 670.286 284.687 621.057 284.687C571.828 284.687 531.92 324.529 531.92 373.677C531.92 422.824 571.828 462.666 621.057 462.666Z" fill="#F2F2F2"/>
<path id="Vector_4" d="M621.057 838.042C730.255 838.042 818.778 749.665 818.778 640.646C818.778 531.627 730.255 443.25 621.057 443.25C511.858 443.25 423.336 531.627 423.336 640.646C423.336 749.665 511.858 838.042 621.057 838.042Z" fill="#F2F2F2"/>
<path id="Vector_5" d="M587.833 369.632C591.861 369.632 595.126 366.372 595.126 362.351C595.126 358.329 591.861 355.07 587.833 355.07C583.805 355.07 580.54 358.329 580.54 362.351C580.54 366.372 583.805 369.632 587.833 369.632Z" fill="#3F3D56"/>
<path id="Vector_6" d="M629.971 369.632C633.998 369.632 637.264 366.372 637.264 362.351C637.264 358.329 633.998 355.07 629.971 355.07C625.943 355.07 622.678 358.329 622.678 362.351C622.678 366.372 625.943 369.632 629.971 369.632Z" fill="#3F3D56"/>
<path id="Vector_7" d="M598.985 373.4L569.875 390.45C568.92 391.01 568.198 391.893 567.84 392.938C567.482 393.984 567.512 395.124 567.925 396.15C568.338 397.175 569.105 398.019 570.088 398.527C571.071 399.036 572.205 399.175 573.282 398.919L603.79 391.685C604.972 391.405 606.008 390.699 606.699 389.702C607.39 388.706 607.688 387.489 607.535 386.287L606.357 377.019C606.255 376.212 605.953 375.444 605.48 374.783C605.007 374.121 604.377 373.587 603.647 373.228C602.916 372.87 602.108 372.698 601.294 372.728C600.481 372.757 599.687 372.988 598.985 373.4Z" fill="#FD6584"/>
<path id="Vector_8" d="M621.057 576.735C629.112 576.735 635.643 570.216 635.643 562.173C635.643 554.131 629.112 547.611 621.057 547.611C613.001 547.611 606.471 554.131 606.471 562.173C606.471 570.216 613.001 576.735 621.057 576.735Z" fill="#3F3D56"/>
<path id="Vector_9" d="M621.057 640.646C629.112 640.646 635.643 634.126 635.643 626.084C635.643 618.042 629.112 611.522 621.057 611.522C613.001 611.522 606.471 618.042 606.471 626.084C606.471 634.126 613.001 640.646 621.057 640.646Z" fill="#3F3D56"/>
<path id="Vector_10" d="M621.057 704.557C629.112 704.557 635.643 698.037 635.643 689.995C635.643 681.953 629.112 675.433 621.057 675.433C613.001 675.433 606.471 681.953 606.471 689.995C606.471 698.037 613.001 704.557 621.057 704.557Z" fill="#3F3D56"/>
<path id="Vector_11" d="M729.456 409.845C716.741 404.921 701.729 408.019 690.747 416.093C682.282 422.315 676.016 431.126 667.63 437.453C654.652 447.248 637.542 450.263 621.318 449.046C605.095 447.83 589.445 442.749 573.98 437.706C573.98 437.706 552.794 419.132 539.063 417.396C532.171 416.577 525.182 417.303 518.606 419.521C512.03 421.74 506.033 425.396 501.052 430.221C493.227 437.916 488.237 449.488 491.38 459.995C495.265 472.981 510.332 479.94 523.88 479.09C537.428 478.24 533.852 491.132 545.696 484.509C533.42 537.303 522.5 566.966 484.804 605.966C480.969 609.934 476.91 613.973 475.024 619.156C473.139 624.338 474.16 631.05 478.863 633.941C482.594 636.235 487.422 635.354 491.122 632.851C487.862 639.111 484.602 645.372 481.342 651.632C479.039 656.055 476.745 661.501 479.344 665.757C482.513 670.944 491.01 669.911 495.007 665.327C495.84 670.017 499.308 674.418 503.998 674.601C510.375 674.849 514.367 667.995 516.877 662.137C537.818 613.255 558.759 564.373 579.7 515.49C584.33 504.684 589.507 493.219 599.477 486.969C607.514 481.932 617.407 481.113 626.872 480.43L690.219 475.854C702.599 474.96 715.258 473.999 726.624 469.021C737.99 464.044 748.01 454.184 749.667 441.904C751.488 428.41 742.171 414.77 729.456 409.845Z" fill="#6C63FF"/>
<path id="Vector_12" d="M610.655 420.874C603.43 420.839 596.232 419.987 589.198 418.334L589.71 416.391C590.162 416.51 635.108 427.959 644.415 400.857L646.318 401.508C640.905 417.274 624.502 420.874 610.655 420.874Z" fill="#3F3D56"/>
<path id="Vector_13" d="M648.8 403.115C646.735 403.19 644.701 402.6 642.997 401.433C641.97 400.63 641.127 399.617 640.523 398.463C639.92 397.308 639.571 396.038 639.499 394.738L641.51 394.68C641.578 395.676 641.851 396.646 642.313 397.531C642.775 398.415 643.416 399.194 644.195 399.819C646.383 401.393 649.728 401.527 654.134 400.22L654.707 402.145C652.795 402.749 650.805 403.076 648.8 403.115V403.115Z" fill="#3F3D56"/>
<path id="Hat" d="M728.374 329.848C722.109 324.083 713.572 319.564 708.366 313.298C699.488 302.612 701.994 289.282 699.763 276.999C696.394 258.463 680.412 240.81 656.547 232.663C632.681 224.516 601.443 227.194 582.906 240.557C557.002 259.231 570.005 269.212 546.598 289.456C540.026 295.14 531.41 299.77 526.688 306.303C521.966 312.836 517.584 337.478 527.058 340.508C537.235 335.762 709.07 353.547 715.428 354.673C721.786 355.799 729.006 353.843 732.656 350.006C738.392 343.973 734.639 335.614 728.374 329.848Z" fill="#6C63FF"/>
<path id="Vector_14" d="M640.505 228.866C657.064 228.866 670.487 215.464 670.487 198.933C670.487 182.401 657.064 169 640.505 169C623.946 169 610.523 182.401 610.523 198.933C610.523 215.464 623.946 228.866 640.505 228.866Z" fill="#F2F2F2"/>
<path id="Vector_15" d="M862.877 506.523L835.845 473.204L703.611 580.135L730.643 613.454L862.877 506.523Z" fill="#F2F2F2"/>
<path id="Vector_16" d="M925.084 451.913C923.551 444.013 917.036 436.977 909.035 436.011C900.098 434.932 891.907 441.063 885.932 447.784C884.637 449.24 883.025 450.888 881.098 450.591C880.334 450.401 879.645 449.984 879.124 449.395C878.602 448.805 878.272 448.072 878.177 447.291C878.018 445.727 878.181 444.146 878.658 442.647C879.494 439.215 880.31 435.711 880.058 432.188C879.805 428.665 878.32 425.058 875.4 423.065C872.479 421.071 868.012 421.226 865.785 423.971C863.269 427.072 864.432 431.588 864.373 435.578C864.279 441.968 860.687 447.84 856.262 452.458C851.838 457.077 846.534 460.761 841.866 465.133C841.271 465.69 840.68 466.283 840.12 466.905L839.728 466.421C838.957 465.472 838.007 464.683 836.932 464.101C835.856 463.518 834.676 463.152 833.459 463.025C832.242 462.897 831.012 463.01 829.838 463.357C828.665 463.704 827.572 464.279 826.621 465.048V465.048C825.67 465.817 824.88 466.765 824.296 467.839C823.712 468.913 823.346 470.091 823.218 471.306C823.09 472.521 823.204 473.749 823.551 474.921C823.899 476.092 824.475 477.184 825.245 478.133L856.357 516.481C857.912 518.398 860.167 519.62 862.625 519.877C865.083 520.135 867.543 519.407 869.464 517.854C871.384 516.301 872.608 514.05 872.866 511.596C873.124 509.142 872.395 506.686 870.84 504.769L867.826 501.054C871.204 497.947 875.137 495.5 879.419 493.839C885.645 491.283 892.268 489.822 898.579 487.482C906.134 484.679 913.354 480.497 918.528 474.327C923.702 468.158 926.618 459.812 925.084 451.913Z" fill="#6C63FF"/>
</g>
</g>
</svg>
